<svg xmlns="http://www.w3.org/2000/svg" viewBox="0 0 512 512" style="enable-background:new 0 0 512 512" xml:space="preserve"><path style="fill:#1cc0f9" d="M273.001 35.587H56.987c-27.01 0-48.909 21.899-48.909 48.907v114.122c0 27.009 21.899 48.909 48.909 48.909h15.836l55.758 61.105v-61.105h61.785c2.599-24.563 23.379-43.705 48.631-43.705h82.632c.182-1.71.279-3.446.279-5.204V84.494c.002-27.009-21.898-48.907-48.907-48.907zM89.556 159.337c-8.922 0-16.156-7.235-16.156-16.156 0-8.923 7.234-16.156 16.156-16.156s16.156 7.232 16.156 16.156c0 8.922-7.232 16.156-16.156 16.156zm73.948 0c-8.923 0-16.156-7.235-16.156-16.156 0-8.923 7.232-16.156 16.156-16.156 8.921 0 16.156 7.232 16.156 16.156 0 8.922-7.235 16.156-16.156 16.156zm73.945 0c-8.922 0-16.156-7.235-16.156-16.156 0-8.923 7.234-16.156 16.156-16.156s16.156 7.232 16.156 16.156c0 8.922-7.233 16.156-16.156 16.156z"/><path style="fill:#00a8e2" d="M68.33 245.396c-20.035-6.117-34.613-24.745-34.613-46.781V84.494c0-27.008 21.899-48.907 48.909-48.907H56.987c-27.01 0-48.909 21.899-48.909 48.907v114.122c0 27.009 21.899 48.909 48.909 48.909H68.33v-2.129z"/><path style="fill:#04c051" d="M406.277 203.82H238.999c-27.01 0-48.909 21.899-48.909 48.907v114.122c0 27.009 21.899 48.909 48.909 48.909h149.867v60.656l55.349-60.656h10.797c27.009 0 48.909-21.9 48.909-48.909V252.728c0-27.008-21.9-48.907-48.909-48.907h-21.809"/><path style="fill:#0cad4d" d="M215.729 366.85V252.728c0-27.008 21.899-48.907 48.909-48.907h-25.639c-27.01 0-48.909 21.899-48.909 48.907V366.85c0 27.009 21.899 48.909 48.909 48.909h25.639c-27.01 0-48.909-21.9-48.909-48.909z"/><path style="fill:#231f20" d="M455.013 195.742h-21.809a8.078 8.078 0 1 0 0 16.156h21.809c22.515 0 40.831 18.316 40.831 40.829v114.122c0 22.514-18.316 40.831-40.831 40.831h-10.796c-2.27 0-4.436.956-5.967 2.632l-41.304 45.264v-39.82a8.078 8.078 0 0 0-8.078-8.078H238.999c-22.515 0-40.831-18.318-40.831-40.831v-114.12c0-1.659.111-3.291.305-4.9.055-.457.108-.914.177-1.366 2.604-16.835 15.53-30.307 32.089-33.724l.066-.014c.59-.121 1.187-.225 1.787-.32.092-.014.182-.031.275-.045a43.06 43.06 0 0 1 1.623-.207c.142-.015.283-.036.426-.05.518-.052 1.04-.087 1.564-.12.16-.01.319-.026.479-.033a41.834 41.834 0 0 1 2.041-.052H406.278a8.078 8.078 0 1 0 0-16.156h-76.289V84.494c0-31.422-25.564-56.985-56.987-56.985H127.319a8.078 8.078 0 1 0 0 16.156h145.682c22.515 0 40.831 18.316 40.831 40.829v111.248h-74.833c-.922 0-1.839.027-2.751.07-.252.012-.501.033-.752.048-.679.041-1.355.09-2.027.155-.246.024-.49.052-.735.079-.712.078-1.421.168-2.124.27l-.507.076c-22.41 3.494-40.618 19.985-46.265 41.96l-.05.191c-.072.285-.154.567-.222.854h-54.985a8.077 8.077 0 0 0-8.078 8.078v40.269L78.79 242.08a8.078 8.078 0 0 0-5.967-2.632H56.987c-22.515 0-40.831-18.318-40.831-40.831V84.494c0-22.513 18.316-40.829 40.831-40.829h42.328a8.078 8.078 0 1 0 0-16.156H56.987C25.564 27.509 0 53.071 0 84.494v114.122c0 31.423 25.564 56.987 56.987 56.987h12.272l53.356 58.472a8.08 8.08 0 0 0 8.887 2.086 8.078 8.078 0 0 0 5.158-7.532v-53.027h45.352v111.246c0 31.423 25.564 56.987 56.987 56.987h141.79v52.578a8.078 8.078 0 0 0 14.045 5.446l52.946-58.023h7.232c31.423 0 56.987-25.564 56.987-56.987V252.728c.001-31.422-25.563-56.986-56.986-56.986z"/><path style="fill:#231f20" d="M258.688 271.472h97.154a8.077 8.077 0 0 0 8.078-8.078 8.077 8.077 0 0 0-8.078-8.078h-97.154a8.077 8.077 0 0 0-8.078 8.078 8.077 8.077 0 0 0 8.078 8.078zM437.479 289.065H258.688c-4.462 0-8.078 3.616-8.078 8.078s3.616 8.078 8.078 8.078H437.48a8.078 8.078 0 1 0-.001-16.156zM437.479 322.811H258.688a8.077 8.077 0 0 0-8.078 8.078 8.077 8.077 0 0 0 8.078 8.078H437.48a8.079 8.079 0 0 0-.001-16.156zM437.479 356.56H258.688c-4.462 0-8.078 3.616-8.078 8.078s3.616 8.078 8.078 8.078H437.48a8.078 8.078 0 1 0-.001-16.156zM89.556 118.948c-13.363 0-24.234 10.872-24.234 24.234 0 13.362 10.871 24.234 24.234 24.234s24.234-10.872 24.234-24.234-10.87-24.234-24.234-24.234zm0 32.311c-4.455 0-8.078-3.623-8.078-8.078s3.623-8.078 8.078-8.078 8.078 3.623 8.078 8.078-3.623 8.078-8.078 8.078zM187.738 143.181c0-13.362-10.871-24.234-24.234-24.234s-24.234 10.872-24.234 24.234c0 13.362 10.871 24.234 24.234 24.234s24.234-10.872 24.234-24.234zm-32.312 0c0-4.455 3.623-8.078 8.078-8.078s8.078 3.623 8.078 8.078-3.623 8.078-8.078 8.078-8.078-3.624-8.078-8.078zM261.683 143.181c0-13.362-10.872-24.234-24.234-24.234-13.362 0-24.234 10.872-24.234 24.234 0 13.362 10.872 24.234 24.234 24.234 13.362 0 24.234-10.872 24.234-24.234zm-32.312 0c0-4.455 3.623-8.078 8.078-8.078s8.078 3.623 8.078 8.078-3.623 8.078-8.078 8.078-8.078-3.624-8.078-8.078z"/></svg>